<svg xmlns="http://www.w3.org/2000/svg" width="240" height="128" fill="none" viewBox="0 0 240 128"><rect width="240" height="128" fill="#F5F5F5"/><g filter="url(#filter0_d)"><rect width="107" height="68" x="71" y="20" fill="#E5E5E5"/></g><rect width="21" height="63" x="71" y="25" fill="#fff"/><rect width="21" height="63" x="157" y="25" fill="#fff"/><rect width="107" height="5" x="71" y="20" fill="#000" fill-opacity=".8"/><rect width="5" height="5" x="77" y="20" fill="#189FFB"/><rect width="6" height="3" x="169" y="21" fill="#189FFB" rx=".68"/><g filter="url(#filter1_d)"><rect width="40" height="52" x="61" y="49" fill="#fff"/></g><rect width="16" height="4" x="65" y="53" fill="#000" fill-opacity=".3"/><rect width="12" height="6" x="85" y="91" fill="#189FFB" rx=".68"/><rect width="32" height="4" x="65" y="63" fill="#E5E5E5"/><rect width="8" height="4" x="65" y="71" fill="#E5E5E5" rx="2"/><rect width="8" height="4" x="65" y="77" fill="#E5E5E5" rx="2"/><rect width="20" height="4" x="77" y="71" fill="#E5E5E5"/><rect width="20" height="4" x="77" y="77" fill="#E5E5E5"/><rect width="4" height="4" x="93" y="53" fill="#000" fill-opacity=".8"/><path fill="#189FFB" d="M100 83.4359L99.6433 83.0856C99.4522 83.2801 99.4522 83.5917 99.6433 83.7862L100 83.4359ZM100 83.9359C107.238 83.9359 112.315 81.8079 116.387 78.6045C120.434 75.4212 123.477 71.1789 126.648 67.0212C129.834 62.8434 133.165 58.7252 137.823 55.6413C142.468 52.5659 148.464 50.5 157 50.5V49.5C148.286 49.5 142.095 51.6135 137.271 54.8075C132.46 57.9928 129.041 62.2335 125.852 66.4147C122.648 70.616 119.691 74.7326 115.769 77.8186C111.872 80.8844 107.012 82.9359 100 82.9359V83.9359ZM99.6433 83.7862L103.143 87.3503L103.857 86.6497L100.357 83.0856L99.6433 83.7862ZM100.357 83.7862L103.857 80.2221L103.143 79.5215L99.6433 83.0856L100.357 83.7862Z"/><circle cx="162" cy="39" r="2" fill="#189FFB"/><rect width="9" height="2" x="166" y="38" fill="#E5E5E5"/><circle cx="162" cy="45" r="2" fill="#7B61FF"/><rect width="9" height="2" x="166" y="44" fill="#E5E5E5"/><circle cx="162" cy="51" r="2" fill="#F0F"/><rect width="9" height="2" x="166" y="50" fill="#E5E5E5"/><circle cx="162" cy="57" r="2" fill="#1BC47D"/><rect width="9" height="2" x="166" y="56" fill="#E5E5E5"/><circle cx="162" cy="63" r="2" fill="#FFEB00"/><rect width="9" height="2" x="166" y="62" fill="#E5E5E5"/><rect width="22" height="34" x="156.5" y="33.5" stroke="#189FFB" rx=".5"/><defs><filter id="filter0_d" width="145.099" height="106.099" x="51.95" y="3.672" color-interpolation-filters="sRGB" filterUnits="userSpaceOnUse"><feFlood flood-opacity="0" result="BackgroundImageFix"/><feColorMatrix in="SourceAlpha" type="matrix" values="0 0 0 0 0 0 0 0 0 0 0 0 0 0 0 0 0 0 127 0"/><feOffset dy="2.721"/><feGaussianBlur stdDeviation="9.525"/><feColorMatrix type="matrix" values="0 0 0 0 0 0 0 0 0 0 0 0 0 0 0 0 0 0 0.15 0"/><feBlend in2="BackgroundImageFix" mode="normal" result="effect1_dropShadow"/><feBlend in="SourceGraphic" in2="effect1_dropShadow" mode="normal" result="shape"/></filter><filter id="filter1_d" width="78.099" height="90.099" x="41.95" y="32.672" color-interpolation-filters="sRGB" filterUnits="userSpaceOnUse"><feFlood flood-opacity="0" result="BackgroundImageFix"/><feColorMatrix in="SourceAlpha" type="matrix" values="0 0 0 0 0 0 0 0 0 0 0 0 0 0 0 0 0 0 127 0"/><feOffset dy="2.721"/><feGaussianBlur stdDeviation="9.525"/><feColorMatrix type="matrix" values="0 0 0 0 0 0 0 0 0 0 0 0 0 0 0 0 0 0 0.15 0"/><feBlend in2="BackgroundImageFix" mode="normal" result="effect1_dropShadow"/><feBlend in="SourceGraphic" in2="effect1_dropShadow" mode="normal" result="shape"/></filter></defs></svg>